<svg xmlns="http://www.w3.org/2000/svg" width="620" height="520" viewBox="0 0 620 520" fill="none">
  <defs>
    <linearGradient id="g" x1="64" y1="43" x2="558" y2="493" gradientUnits="userSpaceOnUse">
      <stop stop-color="#e9fbff"/>
      <stop offset="1" stop-color="#f5fff7"/>
    </linearGradient>
    <filter id="s" x="10" y="10" width="600" height="500" filterUnits="userSpaceOnUse"><feDropShadow dx="0" dy="22" stdDeviation="25" flood-opacity=".12" flood-color="#06244d"/></filter>
  </defs>
  <rect x="42" y="42" width="536" height="416" rx="42" fill="url(#g)"/>
  <g opacity=".35" stroke="#b5d6e9" stroke-width="2">
    <path d="M45 150h530M45 250h530M45 350h530M160 45v410M300 45v410M440 45v410"/>
  </g>
  <g filter="url(#s)">
    <rect x="92" y="110" width="275" height="235" rx="24" fill="#fff"/>
    <rect x="116" y="135" width="95" height="74" rx="18" fill="#dff4ff"/>
    <rect x="228" y="135" width="115" height="74" rx="18" fill="#e8fff4"/>
    <rect x="116" y="230" width="227" height="20" rx="10" fill="#eef3f7"/>
    <rect x="116" y="266" width="165" height="20" rx="10" fill="#eef3f7"/>
    <rect x="116" y="302" width="210" height="20" rx="10" fill="#eef3f7"/>
    <circle cx="455" cy="257" r="88" fill="#1f6bff"/>
    <circle cx="455" cy="257" r="58" fill="#0acc87"/>
    <path d="M455 203v108M401 257h108" stroke="white" stroke-width="24" stroke-linecap="round"/>
    <rect x="310" y="328" width="220" height="98" rx="24" fill="#fff"/>
    <circle cx="352" cy="377" r="24" fill="#e7f6ff"/>
    <path d="M345 377h14M352 370v14" stroke="#0acc87" stroke-width="7" stroke-linecap="round"/>
    <rect x="390" y="355" width="104" height="16" rx="8" fill="#14224b" opacity=".9"/>
    <rect x="390" y="383" width="76" height="14" rx="7" fill="#8a9aaf" opacity=".5"/>
  </g>
</svg>
