<svg xmlns="http://www.w3.org/2000/svg" width="760" height="280" viewBox="0 0 760 280" fill="none">
<defs><linearGradient id="b" x1="0" y1="0" x2="760" y2="280" gradientUnits="userSpaceOnUse"><stop stop-color="#1b63fb"/><stop offset="1" stop-color="#0aa9ff"/></linearGradient></defs>
<rect width="760" height="280" rx="26" fill="url(#b)"/>
<g opacity=".18" stroke="#fff"><path d="M30 60h190M470 34h230M520 230h190"/><circle cx="655" cy="76" r="52"/><circle cx="112" cy="224" r="44"/></g>
<g transform="translate(425 32)">
  <circle cx="70" cy="68" r="42" fill="#ffd3b5"/><path d="M34 60c2-42 36-58 68-49 33 9 45 39 36 69-22-17-65-11-104-20Z" fill="#4b332b"/>
  <path d="M24 218c8-70 24-113 48-132h68c24 19 40 62 48 132H24Z" fill="#fff"/><path d="M72 97l34 39 34-39 17 121H56L72 97Z" fill="#eaf4ff"/>
  <circle cx="230" cy="88" r="34" fill="#ffd3b5"/><path d="M195 224c6-61 18-98 39-114h56c21 16 33 53 39 114H195Z" fill="#fff"/><path d="M198 78c0-37 32-55 62-47 33 8 43 33 35 61-29-17-56-16-97-14Z" fill="#24344c"/>
  <circle cx="-42" cy="96" r="32" fill="#ffd3b5"/><path d="M-76 224c6-58 18-92 36-108h54c19 16 31 50 36 108H-76Z" fill="#09c987"/><path d="M-76 87c0-34 28-48 54-43 29 6 38 30 31 55-21-15-54-12-85-12Z" fill="#9b6854"/>
</g>
</svg>
